# AST/ASF file generated using VICON BodyLanguage
# -----------------------------------------------
:version 1.10
:name VICON
:units
  mass 1.0
  length 0.45
  angle deg
:documentation
   .ast/.asf automatically generated from VICON data using
   VICON BodyBuilder and BodyLanguage model FoxedUp or BRILLIANT.MOD
:root
   order TX TY TZ RX RY RZ
   axis XYZ
   position 0 0 0  
   orientation 0 0 0 
:bonedata
  begin
     id 1 
     name lhipjoint
     direction 0.690799 -0.707083 0.151096 
     length 2.54797 
     axis 0 0 0  XYZ
  end
  begin
     id 2 
     name lfemur
     direction 0.34202 -0.939693 0  
     length 7.21646  
     axis 0 0 20  XYZ
    dof rx ry rz
    limits (-160.0 20.0)
           (-70.0 70.0)
           (-60.0 70.0)
  end
  begin
     id 3 
     name ltibia
     direction 0.34202 -0.939693 0   
     length 8.16759   
     axis 0 0 20   XYZ
    dof rx
    limits (-10.0 170.0)
  end
  begin
     id 4 
     name lfoot
     direction 0.0487203 -0.133858 0.989802   
     length 1.93375   
     axis -90 7.62852e-016 20   XYZ
    dof rx rz
    limits (-45.0 90.0)
           (-70.0 20.0)
  end
  begin
     id 5 
     name ltoes
     direction 1.53453e-011 -4.21783e-011 1   
     length 0.979747   
     axis -90 7.62852e-016 20   XYZ
    dof rx
    limits (-90.0 20.0)
  end
  begin
     id 6 
     name rhipjoint
     direction -0.694693 -0.703425 0.150315   
     length 2.56122  
     axis 0 0 0  XYZ 
  end
  begin
     id 7 
     name rfemur
     direction -0.34202 -0.939693 0   
     length 7.36786   
     axis 0 0 -20   XYZ
    dof rx ry rz
    limits (-160.0 20.0)
           (-70.0 70.0)
           (-70.0 60.0)
  end
  begin
     id 8 
     name rtibia
     direction -0.34202 -0.939693 0   
     length 8.07288   
     axis 0 0 -20   XYZ
    dof rx
    limits (-10.0 170.0)
 end
 begin
     id 9 
     name rfoot
     direction -0.0428397 -0.117701 0.992125   
     length 1.88295  
     axis -90 -7.62852e-016 -20   XYZ
    dof rx rz
    limits (-45.0 90.0)
           (-20.0 70.0)
  end
  begin
     id 10 
     name rtoes
     direction -1.53456e-011 -4.2187e-011 1   
     length 0.955578   
     axis -90 -7.62852e-016 -20   XYZ
    dof rx
    limits (-90.0 20.0)
  end
  begin
     id 11 
     name lowerback
     direction 0.0288145 0.999398 -0.0193241   
     length 1.92149   
     axis 0 0 0   XYZ
    dof rx ry rz
    limits (-20.0 45.0)
           (-30.0 30.0)
           (-30.0 30.0)
  end
  begin
     id 12 
     name upperback
     direction 0.0233784 0.998099 0.0570278   
     length 1.90435   
     axis 0 0 0   XYZ
    dof rx ry rz
    limits (-20.0 45.0)
           (-30.0 30.0)
           (-30.0 30.0)
  end
  begin
     id 13 
     name thorax
     direction 0.0096694 0.997833 0.0650817   
     length 1.9111   
     axis 0 0 0   XYZ
    dof rx ry rz
    limits (-20.0 45.0)
           (-30.0 30.0)
           (-30.0 30.0)
  end
  begin
     id 14 
     name lowerneck
     direction 0.00516803 0.999916 0.0118722   
     length 1.74664   
     axis 0 0 0   XYZ
    dof rx ry rz
    limits (-20.0 45.0)
           (-30.0 30.0)
           (-30.0 30.0)
  end
  begin
     id 15 
     name upperneck
     direction -0.0510851 0.996117 -0.071696   
     length 1.68498   
     axis 0 0 0   XYZ
    dof rx ry rz
    limits (-20.0 45.0)
           (-30.0 30.0)
           (-30.0 30.0)
  end
  begin
     id 16
     name head
     direction -0.019188 0.999436 -0.0275702  
     length 1.83483  
     axis 0 0 0   XYZ
    dof rx ry rz
    limits (-20.0 45.0)
           (-30.0 30.0)
           (-30.0 30.0)
  end
  begin
     id 17 
     name lclavicle
     direction 0.967006 0.248456 -0.0562957  
     length 3.39395  
     axis 0 0 0   XYZ
    dof ry rz
    limits (-20.0 10.0)
           (0.0 20.0)
  end
  begin
     id 18 
     name lhumerus
     direction 1 -4.48962e-011 -5.62711e-019   
     length 5.24318   
     axis 180 -30 -90   XYZ
    dof rx ry rz
    limits (-60.0 90.0)
           (-90.0 90.0)
           (-90.0 90.0)
  end
  begin
     id 19
     name lradius
     direction 1 -4.48966e-011 7.90625e-027   
     length 2.98999   
     axis 180 -30 -90   XYZ
    dof rx
    limits (-10.0 170.0)
  end
  begin
     id 20
     name lwrist
     direction 1 -4.48959e-011 1.61068e-026   
     length 1.49499   
     axis -9.31229e-015 90 90   XYZ
    dof ry
    limits (-180.0 0.0)
 end
  begin
     id 21 
     name lhand
     direction 1 -4.49017e-011 3.22136e-026   
     length 0.726745   
     axis -2.0555e-014 90 90   XYZ
    dof rx rz
    limits (-90.0 90.0)
           (-45.0 45.0)
  end
  begin
     id 22 
     name lfingers
     direction 1 -4.4898e-011 6.44272e-026   
     length 0.58592   
     axis -4.11101e-014 90 90   XYZ
    dof rx
    limits (0.0 90.0)
  end
  begin
     id 23
     name lthumb
     direction 0.707107 -6.34922e-011 0.707107   
     length 0.841268   
     axis -90 45 2.85299e-015   XYZ
    dof rx rz
    limits (-45.0 45.0)
           (-45.0 45.0)
  end
  begin
     id 24 
     name rclavicle
     direction -0.972232 0.230238 0.0419005   
     length 3.40416  
     axis 0 0 0   XYZ 
    dof ry rz
    limits (-10.0 20.0)
           (-20.0 0.0)
  end
  begin
     id 25 
     name rhumerus
     direction -1 -4.48976e-011 2.48487e-027  
     length 5.37045   
     axis 180 30 90   XYZ
    dof rx ry rz
    limits (-90.0 60.0)
           (-90.0 90.0)
           (-90.0 90.0)
  end
  begin
     id 26 
     name rradius
     direction -1 -4.48942e-011 7.87951e-027   
     length 2.92792   
     axis 180 30 90   XYZ
    dof rx
    limits (-10.0 170.0)
  end
  begin
     id 27 
     name rwrist
     direction -1 -4.48969e-011 1.61068e-026   
     length 1.46396   
     axis -9.31229e-015 -90 -90   XYZ
    dof ry
    limits (-180.0 0.0)
  end
  begin
     id 28
     name rhand
     direction -1 -4.49043e-011 3.22136e-026   
     length 0.784497   
     axis -2.0555e-014 -90 -90   XYZ
    dof rx rz
    limits (-90.0 90.0)
           (-45.0 45.0)
  end
  begin
     id 29
     name rfingers
     direction -1 -4.48823e-011 6.44272e-026   
     length 0.632482   
     axis -4.11101e-014 -90 -90   XYZ
    dof rx
    limits (0.0 90.0)
  end
  begin
     id 30
     name rthumb
     direction -0.707107 -6.34923e-011 0.707107   
     length 0.908121   
     axis -90 -45 -2.85299e-015   XYZ
    dof rx rz
    limits (-45.0 45.0)
           (-45.0 45.0)
  end
:hierarchy
  begin
    root lhipjoint rhipjoint lowerback
    lhipjoint lfemur
    lfemur ltibia
    ltibia lfoot
    lfoot ltoes
    rhipjoint rfemur
    rfemur rtibia
    rtibia rfoot
    rfoot rtoes
    lowerback upperback
    upperback thorax
    thorax lowerneck lclavicle rclavicle
    lowerneck upperneck
    upperneck head
    lclavicle lhumerus
    lhumerus lradius
    lradius lwrist
    lwrist lhand lthumb
    lhand lfingers
    rclavicle rhumerus
    rhumerus rradius
    rradius rwrist
    rwrist rhand rthumb
    rhand rfingers
  end

#!OML:ASF E:\Style6\Style6.ASF
:FULLY-SPECIFIED
:DEGREES
132
root 0.520204 16.0294 0.376042 11.9619 -3.33941 -4.34571
lowerback 5.56824 -0.947956 1.23109
upperback -7.06785 -0.818333 3.6438
thorax -10.6505 -0.321653 3.34786
lowerneck -10.442 0.833166 2.98893
upperneck 17.5813 1.49325 -4.80088
head 7.15603 0.484869 -1.91917
rclavicle 6.19028e-015 -2.0276e-014
rhumerus -7.64598 -34.2315 4.08929
rradius 70.9818
rwrist 19.7168
rhand -3.74514 0.384323
rfingers 7.12502
rthumb 21.9987 -28.3847
lclavicle 6.19028e-015 -2.0276e-014
lhumerus -120.153 -54.2747 153.277
lradius 93.0739
lwrist 23.3915
lhand -0.352449 6.80485
lfingers 7.12502
lthumb 25.2527 35.1537
rfemur -44.331 -11.8324 24.303
rtibia 62.065
rfoot -19.1752 15.4488
rtoes 10.4713
lfemur -43.4088 13.9973 -15.396
ltibia 65.9046
lfoot -28.2096 -2.32517
ltoes -23.8117
133
root 0.514995 15.9891 0.381813 12.023 -3.20795 -4.30674
lowerback 5.55698 -0.969683 1.18327
upperback -7.12586 -0.854163 3.61218
thorax -10.7066 -0.335924 3.34782
lowerneck -10.5246 0.806678 2.92767
upperneck 17.7256 1.44777 -4.6767
head 7.21445 0.468001 -1.87399
rclavicle 8.69683e-015 -3.22031e-014
rhumerus -8.03967 -34.0963 4.16917
rradius 71.2607
rwrist 19.74
rhand -3.81221 0.329608
rfingers 7.12502
rthumb 21.9343 -28.4469
lclavicle 8.69683e-015 -3.22031e-014
lhumerus -120.149 -53.9569 153.488
lradius 93.2406
lwrist 23.1244
lhand -0.332212 6.71358
lfingers 7.12502
lthumb 25.2721 35.0597
rfemur -44.6752 -11.9101 24.3099
rtibia 62.6215
rfoot -19.3955 15.4843
rtoes 11.0661
lfemur -43.7737 13.9244 -15.4174
ltibia 66.4247
lfoot -28.3938 -2.13017
ltoes -24.4811
134
root 0.51185 15.9502 0.389631 12.0331 -3.13381 -4.31596
lowerback 5.51859 -0.99461 1.20386
upperback -7.13412 -0.888116 3.59738
thorax -10.6914 -0.354924 3.32418
lowerneck -10.5041 0.801864 2.90155
upperneck 17.7278 1.43221 -4.602
head 7.21026 0.465663 -1.84669
rclavicle 2.17421e-016 -2.0276e-014
rhumerus -8.35104 -33.989 4.19447
rradius 71.5578
rwrist 19.6521
rhand -3.73519 0.296376
rfingers 7.12502
rthumb 22.0082 -28.4715
lclavicle 2.17421e-016 -2.0276e-014
lhumerus -120.1 -53.6706 153.662
lradius 93.4128
lwrist 23.0124
lhand -0.334765 6.82657
lfingers 7.12502
lthumb 25.2697 35.173
rfemur -44.9271 -11.9447 24.3338
rtibia 63.1444
rfoot -19.6313 15.5266
rtoes 11.4692
lfemur -44.049 13.9364 -15.3793
ltibia 66.9369
lfoot -28.635 -1.99117
ltoes -24.8913
135
root 0.511446 15.9164 0.402671 11.9336 -3.13564 -4.324
lowerback 5.51788 -1.00072 1.24503
upperback -7.08587 -0.895424 3.5773
thorax -10.6371 -0.363449 3.27824
lowerneck -10.531 0.810924 2.91715
upperneck 17.7505 1.44108 -4.59681
head 7.22287 0.470945 -1.84699
rclavicle -1.02064e-014 -1.66979e-014
rhumerus -8.57205 -33.9754 4.18996
rradius 71.7889
rwrist 19.5881
rhand -3.59109 0.336584
rfingers 7.12502
rthumb 22.1466 -28.4149
lclavicle -1.02064e-014 -1.66979e-014
lhumerus -119.957 -53.427 153.78
lradius 93.5447
lwrist 23.0048
lhand -0.275478 6.96074
lfingers 7.12502
lthumb 25.3265 35.2991
rfemur -45.0101 -11.9593 24.3023
rtibia 63.6351
rfoot -19.9236 15.5411
rtoes 11.4523
lfemur -44.1213 13.9788 -15.3423
ltibia 67.4207
lfoot -28.9292 -1.78978
ltoes -25.4172
136
root 0.510058 15.8854 0.414294 11.7941 -3.15556 -4.29192
lowerback 5.60116 -0.98791 1.22705
upperback -7.04252 -0.881423 3.54492
thorax -10.6393 -0.356794 3.25225
lowerneck -10.5367 0.808192 2.94132
upperneck 17.7549 1.43553 -4.6101
head 7.22529 0.46864 -1.85593
rclavicle -1.21445e-014 7.95139e-016
rhumerus -8.77592 -33.9545 4.21684
rradius 71.9641
rwrist 19.5337
rhand -3.49751 0.217135
rfingers 7.12502
rthumb 22.2364 -28.5237
lclavicle -1.21445e-014 7.95139e-016
lhumerus -119.815 -53.2174 153.895
lradius 93.7015
lwrist 23.1502
lhand -0.464378 6.88138
lfingers 7.12502
lthumb 25.1455 35.2453
rfemur -45.0614 -11.9643 24.2218
rtibia 64.1136
rfoot -20.1885 15.5585
rtoes 11.4098
lfemur -44.2105 14.0066 -15.3551
ltibia 67.9182
lfoot -29.1781 -1.62531
ltoes -25.2818
